<svg width="800" height="600" xmlns="http://www.w3.org/2000/svg" stroke="null" style="vector-effect: non-scaling-stroke;">
 <g id="Layer_1">
  <title>Layer 1</title>
  <path id="svg_27" d="m11.8,91.885l0,0c0,-45.83963 35.36951,-83 79,-83l0,0c20.95209,0 41.04606,8.74461 55.86142,24.31013c14.81538,15.56552 23.13857,36.67689 23.13857,58.68987l0,0c0,45.83962 -35.36951,83 -79,83l0,0c-43.63049,0 -79,-37.16038 -79,-83zm39.5,0l0,0c0,22.91981 17.68476,41.5 39.5,41.5c21.81525,0 39.5,-18.58019 39.5,-41.5c0,-22.91981 -17.68476,-41.5 -39.5,-41.5l0,0c-21.81523,0 -39.5,18.5802 -39.5,41.5z" stroke-width="0" stroke="#000" fill="#b2b2b2"/>
 </g>
</svg>