<svg width="800" height="600" xmlns="http://www.w3.org/2000/svg" stroke="null" style="vector-effect: non-scaling-stroke;">
 <g id="Layer_1">
  <title>Layer 1</title>
  <path id="svg_29" d="m76.02969,57.89522c2.73749,2.36764 5.45993,5.43816 8.25326,8.90696c0.40288,-0.53092 0.78313,-1.04561 1.18615,-1.58775c4.04293,-5.43837 8.62448,-11.59595 13.75845,-17.55426c0.81489,-0.96801 1.67062,-1.7814 2.50062,-2.69436c-3.85278,-4.14368 -8.10237,-8.12143 -13.22883,-11.5405c-7.92729,-5.35533 -18.28429,-9.07863 -29.79722,-9.00133l-49.89242,0l0,26.13524l49.90149,0c6.93882,0.12169 11.33788,2.17955 17.31853,7.336l-0.00002,0zm108.11045,21.38839l0,16.35912c-7.29496,-0.01666 -19.38436,-0.01666 -22.81005,-0.01666c-10.1274,-0.21564 -16.77363,-3.17554 -23.68835,-8.32614c-2.99107,-2.25157 -5.85528,-5.07334 -8.68033,-8.21564c-2.12022,2.72738 -4.25716,5.54348 -6.43175,8.46992c-2.64247,3.54097 -5.36488,7.18134 -8.20502,10.76071c-0.70479,0.87968 -1.49551,1.78682 -2.23954,2.67778c11.51157,11.08117 27.47922,20.63545 49.06996,20.75175l22.9851,0l0,16.35915l27.81132,-14.68823l27.85822,-14.72164l-27.85822,-14.70499l-27.81132,-14.70512l0,-0.00001zm-46.49841,-20.3927c6.91472,-5.1617 13.56095,-8.11039 23.68835,-8.32624c3.4257,0 15.51509,0 22.81005,-0.01101l0,16.35943l27.81132,-14.69413l27.85822,-14.70512l-27.85822,-14.71639l-27.81132,-14.69386l0,16.34262l-22.9851,0c-26.05309,0.14405 -44.01443,13.99711 -55.70841,27.71725c-11.91447,13.86447 -20.55556,28.48664 -29.41695,36.12674c-5.9897,5.13955 -10.3797,7.21958 -17.31853,7.33587l-49.90149,0l0,26.13502l49.90149,0c11.51149,0.07748 21.86839,-3.64019 29.7957,-9.00659c8.00738,-5.32761 14.02111,-11.97207 19.41615,-18.66075c10.61048,-13.47151 19.41608,-27.44617 29.71872,-35.20282l0.00001,-0.00001z" stroke-width="0" stroke="#000" fill="#b2b2b2"/>
 </g>
</svg>