<svg width="800" height="600" xmlns="http://www.w3.org/2000/svg" stroke="null" style="vector-effect: non-scaling-stroke;">
 <g id="Layer_1">
  <title>Layer 1</title>
  <path stroke="#000" id="svg_1" d="m7.96651,135.80389c9.36537,-0.06635 18.73074,-0.13271 28.09611,-0.19905c0.06166,-10.49452 0.12331,-20.98904 0.18497,-31.48355c9.32063,0 18.64126,0 27.9619,0c0,-10.55891 0,-21.11782 0,-31.67672c9.55932,0 19.11862,0 28.67794,0c0,-10.30137 0,-20.60274 0,-30.90411c9.44129,0 18.88258,0 28.32388,0c0,-10.30136 0,-20.60274 0,-30.90411c14.04393,0 28.08786,0 42.13179,0c0,5.15068 0,10.30137 0,15.45205c-9.3233,0 -18.64656,0 -27.96985,0c0,10.43014 0,20.86027 0,31.29041c-9.44129,0 -18.88258,0 -28.32388,0c0,10.43014 0,20.86028 0,31.29041c-9.4413,0 -18.88258,0 -28.32388,0c0,10.43014 0,20.86028 0,31.2904c-9.55932,0 -19.11863,0 -28.67793,0c0,10.55891 0,21.11782 0,31.67671c-14.16195,0 -28.32389,0 -42.48583,0c0.63134,-5.11849 -1.0763,-10.89015 0.4048,-15.83245l0,-0.00001z" stroke-width="0" fill="#b2b2b2"/>
 </g>
</svg>