<svg width="800" height="600" xmlns="http://www.w3.org/2000/svg" stroke="null" style="vector-effect: non-scaling-stroke;">
 <g id="Layer_1">
  <title>Layer 1</title>
  <path stroke="#000" id="svg_32" d="m70.55,104.14686l24.5,-86.99999l24.5,86.99999l-49,0z" stroke-width="0" fill="#b2b2b2"/>
  <path transform="rotate(39.0157 137.283 81.6566)" stroke="#000" id="svg_34" d="m112.78308,130.29225l24.5,-97.27137l24.5,97.27137l-49,0z" stroke-width="0" fill="#b2b2b2"/>
  <path transform="rotate(98.0137 137.942 118.501)" stroke="#000" id="svg_35" d="m113.44229,184.06852l24.5,-131.1352l24.5,131.1352l-49,0z" stroke-width="0" fill="#b2b2b2"/>
  <path transform="rotate(147.12 132.942 166.501)" stroke="#000" id="svg_36" d="m108.44229,232.06852l24.5,-131.1352l24.5,131.1352l-49,0z" stroke-width="0" fill="#b2b2b2"/>
  <path transform="rotate(-161.576 94.0577 170.6)" stroke="#000" id="svg_37" d="m69.55764,216.51277l24.5,-91.82584l24.5,91.82584l-49,0z" stroke-width="0" fill="#b2b2b2"/>
  <path transform="rotate(-136.336 66.9423 144.501)" stroke="#000" id="svg_38" d="m42.44229,210.06852l24.5,-131.1352l24.5,131.1352l-49,0z" stroke-width="0" fill="#b2b2b2"/>
  <path transform="rotate(-52.6139 75.9423 101.501)" stroke="#000" id="svg_39" d="m51.44229,167.06852l24.5,-131.1352l24.5,131.1352l-49,0z" stroke-width="0" fill="#b2b2b2"/>
  <path transform="rotate(-86.8777 73.9423 114.501)" stroke="#000" id="svg_40" d="m49.44229,180.06852l24.5,-131.1352l24.5,131.1352l-49,0z" stroke-width="0" fill="#b2b2b2"/>
  <path transform="rotate(128.682 160.942 154.501)" stroke="#000" id="svg_41" d="m136.44229,220.06852l24.5,-131.1352l24.5,131.1352l-49,0z" stroke-width="0" fill="#b2b2b2"/>
  <path transform="rotate(53.1854 145.4 104.414)" stroke="#000" id="svg_42" d="m120.90013,146.42173l24.5,-84.01549l24.5,84.01549l-49,0z" stroke-width="0" fill="#b2b2b2"/>
  <path transform="rotate(23.3272 115.024 85.0361)" stroke="#000" id="svg_43" d="m90.52383,140.2963l24.5,-110.52044l24.5,110.52044l-49,0z" stroke-width="0" fill="#b2b2b2"/>
  <path transform="rotate(-17.9447 72.913 73.9109)" stroke="#000" id="svg_44" d="m58.45486,139.0337l14.45818,-130.24562l14.45818,130.24562l-28.91637,0z" stroke-width="0" fill="#b2b2b2"/>
 </g>
</svg>