<svg width="800" height="600.0000000000001" xmlns="http://www.w3.org/2000/svg">
 <g id="Layer_1">
  <title>Layer 1</title>
  <rect transform="rotate(35.348 149.219 235.058)" stroke="#000" id="svg_1" height="131" width="61.34445" y="169.55823" x="118.54697" stroke-width="0" fill="#b2b2b2"/>
  <ellipse stroke="#000" ry="37.25907" rx="31.98187" id="svg_2" cy="291.00948" cx="112.57017" stroke-width="0" fill="#b2b2b2"/>
  <rect transform="rotate(86.8147 178.027 295.689)" stroke="#000" id="svg_4" height="141.76496" width="49.79256" y="224.80622" x="153.13057" stroke-width="0" fill="#b2b2b2"/>
  <rect transform="rotate(94.5573 305.396 299.462)" stroke="#000" id="svg_5" height="121.04416" width="44.86333" y="238.94009" x="282.964" stroke-width="0" fill="#b2b2b2"/>
  <ellipse stroke="#000" ry="19.38202" rx="27.80899" id="svg_6" cy="284.9987" cx="244.39961" stroke-width="0" fill="#b2b2b2"/>
  <ellipse transform="rotate(6.20956 364.553 304.051)" stroke="#000" ry="22.47191" rx="30.61798" id="svg_8" cy="304.05054" cx="364.55326" stroke-width="0" fill="#b2b2b2"/>
  <rect transform="rotate(17.3268 249.233 205.328)" stroke="#000" id="svg_10" height="40.01117" width="176.69279" y="185.32228" x="160.88658" stroke-width="0" fill="#b2b2b2"/>
  <ellipse transform="rotate(20.884 200.838 183.268)" stroke="#000" ry="23.65576" rx="43.93071" id="svg_11" cy="183.26803" cx="200.83775" stroke-width="0" fill="#b2b2b2"/>
  <ellipse stroke="#000" ry="20.52026" rx="22.54339" id="svg_13" cy="230.92573" cx="331.21504" stroke-width="0" fill="#b2b2b2"/>
  <ellipse ry="36.12723" rx="36.41624" id="svg_16" cy="129.76949" cx="242.77558" stroke-width="0" stroke="#000" fill="#b2b2b2"/>
  <ellipse ry="2.60116" rx="0.57804" id="svg_17" cy="125.72324" cx="245.08772" stroke-width="0" stroke="#000" fill="#b2b2b2"/>
 </g>
</svg>