<svg width="800" height="600" xmlns="http://www.w3.org/2000/svg" stroke="null" style="vector-effect: non-scaling-stroke;">
 <g id="Layer_1">
  <title>Layer 1</title>
  <path stroke="#000" id="svg_7" d="m217.32151,165.0285l-28.22917,-49.08722c-8.51099,-14.79476 -22.43189,-39.01496 -30.94293,-53.81258l-28.22654,-49.08424c-8.51944,-14.80344 -22.44032,-14.80344 -30.94849,0l-28.22082,49.08424c-8.51099,14.79762 -22.44037,39.02346 -30.94855,53.81258l-28.2237,49.08722c-8.51098,14.80903 -1.54482,26.91338 15.47431,26.91338l174.7747,0c17.03613,0 23.99366,-12.10436 15.49118,-26.91338l0.00001,0zm-94.81223,7.59908l-16.74264,0l0,-16.13995l16.74264,0l0,16.13995zm-0.80662,-28.03249l-15.11511,0l-1.50213,-69.0569l17.98533,0l-1.36809,69.0569l-0.00001,0z" stroke-width="0" fill="#b2b2b2"/>
 </g>
</svg>