<svg width="800" height="600" xmlns="http://www.w3.org/2000/svg" stroke="null" style="vector-effect: non-scaling-stroke;">
 <g id="Layer_1">
  <title>Layer 1</title>
  <path id="svg_1" d="m25.13238,42.38035c-1.48023,7.63458 -5.26124,14.93102 -5.51585,22.80374c0.33876,4.55829 -3.01844,7.00676 -7.61436,6.92056c-4.94305,4.66728 0.61012,12.0434 6.20306,13.92744c5.70792,3.48999 12.78898,-0.4097 18.44319,2.72096c7.50785,5.34602 10.6422,14.82463 8.052,23.13438c-2.57535,6.85972 10.60773,4.3649 5.64912,-1.1186c-3.82972,-5.3597 7.2193,-3.58768 4.39068,1.50086c-0.5345,4.08468 3.3077,5.40679 1.5978,9.36411c4.45459,2.32668 -0.37341,3.62942 -3.08668,4.06873c-6.35384,2.88514 1.14929,-5.16827 -3.88422,-7.55032c-4.60943,0.91251 -1.48607,7.94355 -3.06823,7.13147c-3.25716,-2.32325 -3.25475,-11.00923 -8.72136,-5.34173c-1.81431,-6.98336 1.49606,-14.25625 -1.05406,-21.19907c1.04463,-5.18499 -7.9426,-6.97343 -6.80587,-0.95972c0.45315,9.1782 -2.60654,18.33813 -0.8505,27.47111c2.41857,5.63315 9.18294,8.17081 13.42845,12.51775c3.48672,3.35174 8.00694,6.93529 13.43382,5.88005c6.15522,-0.24304 12.32178,-0.76085 18.44923,0.12932c7.70708,0.22142 13.59048,-5.32774 20.16769,-8.17822c7.73202,-5.5925 6.51464,-15.58187 5.74386,-23.53889c-0.94513,-4.91259 1.12884,-9.82741 0.74234,-14.69401c-5.57437,-6.21282 -10.14789,4.70745 -8.55995,9.39916c-0.00039,5.90182 1.24386,13.50436 -4.93672,17.34886c-5.10064,-0.11716 -9.95498,1.57046 -15.09496,0.68808c-4.1708,2.2561 -10.92648,2.19817 -12.30318,-3.17255c-0.54964,-4.76955 1.82292,-9.76995 -1.40072,-14.22127c2.83236,2.22206 7.77394,-1.91912 5.01995,3.06259c-3.35907,4.0551 2.84433,10.30374 5.17963,4.31835c0.77479,-4.01585 -3.35138,-9.34574 3.43116,-8.48537c1.3832,1.41651 -4.7235,11.32496 3.62397,8.82099c5.95129,-1.18745 -1.05878,-9.69114 7.00042,-9.72069c3.90036,-4.18268 2.85019,-12.02257 8.81635,-15.19568c6.65223,-4.10076 17.0386,-1.14017 21.78656,-8.08478c4.04697,-3.55381 2.14248,-13.40381 -4.83708,-10.14002c-8.7222,0.77451 -1.79992,-10.76083 -2.04328,-15.08325c2.0551,-3.76468 -2.49576,-11.68931 -0.9287,-12.53008c2.96102,4.12664 4.02154,8.95321 3.38473,13.77586c-0.05472,4.08977 -1.9588,15.17361 4.28317,8.34094c2.11308,-4.76177 1.49851,-10.15533 3.00397,-15.1094c2.90364,-10.69571 -2.29538,-21.39736 -8.09132,-30.45656c-4.9363,-4.877 -11.20307,-8.76476 -17.08805,-12.59259c-9.89874,-3.39118 -20.82849,-3.99869 -31.28307,-3.14878c-9.2475,1.46007 -19.0267,2.9994 -26.39351,8.74269c-7.17959,3.85342 -14.05555,8.97136 -16.89393,16.37567c-2.47353,5.96492 -6.805,12.03945 -4.83639,18.66561c1.88272,5.52365 0.88416,11.26015 1.189,16.90588c3.20947,6.45251 6.2396,-3.30179 5.93924,-6.52819c0.17768,-6.11829 3.72139,-11.53387 6.3326,-16.96535l-0.00001,-0.00001zm58.94923,13.12598c6.60005,0.4308 14.95672,3.77867 15.13683,10.75831c1.00357,7.00426 -5.20964,13.79363 -13.17202,13.10675c-7.2324,-0.54114 -11.85794,-6.23175 -11.37769,-12.6296c-2.42139,-4.58733 1.34672,-9.50042 6.40386,-10.55497c0.98068,-0.30038 1.98871,-0.52522 3.00902,-0.68049l0,0zm-44.53924,0.59658c7.65655,-1.24034 16.36775,3.08619 16.39331,10.80613c0.71911,7.46314 -7.97955,8.92532 -13.9134,10.79495c-4.10595,2.41492 -8.37106,0.16645 -11.78278,-2.26666c-4.42654,-4.22039 -3.12548,-12.7251 1.5485,-16.57759c2.2665,-1.52793 5.07224,-2.12857 7.75436,-2.75683zm26.19957,19.68841c3.70663,4.6406 8.15646,11.71721 3.36299,16.98412c-4.25529,3.1086 -4.79177,-4.42165 -9.2581,-0.87521c-4.18994,-3.34256 -0.32552,-10.14433 2.61439,-13.53996c0.96898,-0.97781 2.07781,-1.83866 3.28072,-2.56894z" stroke-width="0" stroke="#000" fill="#b2b2b2"/>
 </g>
</svg>