<svg width="800" height="600" xmlns="http://www.w3.org/2000/svg" stroke="null" style="vector-effect: non-scaling-stroke;">
 <g id="Layer_1">
  <title>Layer 1</title>
  <ellipse stroke="#000" ry="10" rx="13.5" id="svg_18" cy="187" cx="69.5" stroke-width="0" fill="#b2b2b2"/>
  <ellipse ry="0.5" id="svg_14" cy="181.5" cx="70" stroke-width="0" stroke="#000" fill="#b2b2b2"/>
  <path transform="rotate(-178.644 73.154 96.6978)" stroke="#000" id="svg_17" d="m48.31989,186.33261c-29.94284,-9.73297 -51.40487,-40.65929 -46.52741,-67.04505c3.07558,-16.63822 67.96253,-117.64382 73.62922,-114.61422c1.84953,0.98882 18.30804,24.53746 36.57447,52.33033c29.2609,44.52124 33.21167,52.82308 33.21167,69.78835c0,34.38791 -31.81442,62.55551 -70.01423,61.98866c-11.14724,-0.16544 -23.24042,-1.26707 -26.87371,-2.44807l0,-0.00001zm29.99934,-17.29585c0.99112,-4.45201 -1.32409,-6.62324 -7.06252,-6.62324c-13.07848,0 -31.22045,-14.32899 -35.27364,-27.86c-4.32366,-14.43391 -15.78759,-16.15053 -17.48088,-2.6176c-3.26235,26.07313 54.32095,61.78848 59.81703,37.10083l0.00001,0z" stroke-width="0" fill="#b2b2b2"/>
  <rect stroke="#000" id="svg_21" height="54" width="7" y="190" x="66" stroke-width="0" fill="#b2b2b2"/>
 </g>
</svg>