<svg width="512" height="512" xmlns="http://www.w3.org/2000/svg">
 <!-- Created with UXWing SVG Editor - https://uxwing.com/svg-icon-editor/ -->

 <g>
  <title>background</title>
  <rect fill="none" id="canvas_background" height="514" width="514" y="-1" x="-1"/>
  <g display="none" id="canvasGrid">
   <rect fill="url(#gridpattern)" stroke-width="0" y="0" x="0" height="100%" width="100%" id="svg_5"/>
  </g>
 </g>
 <g>
  <title>Layer 1</title>
  <ellipse transform="rotate(11.1183 127.752 126.579)" stroke="#999999" ry="52.91309" rx="53.22612" id="svg_1" cy="126.57852" cx="127.75164" stroke-width="0.001" fill="#999999"/>
  <ellipse transform="rotate(143.261 175.265 193.825)" stroke="#999999" ry="98.59143" rx="44.48172" id="svg_2" cy="193.82528" cx="175.2648" stroke-width="0" fill="#999999"/>
  <ellipse transform="rotate(-49.5594 276.09 204.492)" ry="29.19115" rx="92.56736" id="svg_3" cy="204.49212" cx="276.08964" stroke-width="0" fill="#999999" stroke="#999999"/>
  <ellipse transform="rotate(-7.25298 307.399 111.188)" stroke="#999999" ry="18.54549" rx="8.8846" id="svg_4" cy="111.18752" cx="307.39884" stroke-width="0" fill="#999999"/>
  <rect id="svg_6" height="43.99999" width="30.86665" y="108.45043" x="308.55153" stroke-width="0" fill="#999999" stroke="#999999"/>
  <ellipse transform="rotate(-61.0519 306.058 122.182)" stroke="#999999" ry="16.52874" rx="9.48016" id="svg_9" cy="122.18196" cx="306.05782" stroke-width="0" fill="#999999"/>
  <ellipse transform="rotate(-7.25298 313.517 109.784)" stroke="#999999" ry="18.54549" rx="8.8846" id="svg_12" cy="109.7838" cx="313.51736" stroke-width="0" fill="#999999"/>
  <ellipse transform="rotate(-7.25298 322.162 109.259)" stroke="#999999" ry="18.54549" rx="11.77793" id="svg_13" cy="109.25926" cx="322.16162" stroke-width="0" fill="#999999"/>
  <ellipse transform="rotate(22.1828 323.738 118.148)" ry="24.64719" rx="13.51925" id="svg_14" cy="118.14782" cx="323.73803" stroke-width="0" fill="#999999" stroke="#999999"/>
  <ellipse fill="#999999" stroke-width="0" stroke-opacity="null" cx="194.88884" cy="187.33347" id="svg_7" rx="35.7778" ry="40.6667" stroke="#999999"/>
  <ellipse transform="rotate(-33.3298 172 209.111)" fill="#999999" stroke="#999999" stroke-width="0" stroke-opacity="null" cx="171.99993" cy="209.11127" id="svg_11" rx="48.00004" ry="72.22228"/>
 </g>
</svg>