<?xml version="1.0" standalone="no"?>
<!DOCTYPE svg PUBLIC "-//W3C//DTD SVG 20010904//EN"
 "http://www.w3.org/TR/2001/REC-SVG-20010904/DTD/svg10.dtd">
<svg version="1.0" xmlns="http://www.w3.org/2000/svg"
 width="1197.000000pt" height="1280.000000pt" viewBox="0 0 1197.000000 1280.000000"
 preserveAspectRatio="xMidYMid meet">
<g transform="translate(0.000000,1280.000000) scale(0.100000,-0.100000)"
fill="#000000" stroke="none">
<path d="M2935 12441 c-226 -113 -440 -224 -475 -246 -187 -114 -305 -220
-355 -321 -25 -51 -30 -70 -30 -139 0 -46 6 -94 14 -112 l13 -33 82 0 c257 1
405 104 696 486 203 267 282 365 383 477 49 53 87 96 85 96 -2 -1 -188 -95
-413 -208z"/>
<path d="M8709 12550 c98 -108 182 -212 365 -453 154 -203 240 -300 325 -367
122 -98 238 -140 387 -140 l82 0 13 33 c8 18 14 67 14 112 0 68 -4 89 -28 137
-48 98 -162 202 -347 318 -30 19 -244 129 -476 245 l-421 210 86 -95z"/>
<path d="M1854 12059 c-400 -379 -510 -684 -355 -986 11 -23 25 -44 30 -48 15
-9 194 173 239 243 66 103 81 161 97 387 15 195 31 305 61 414 8 29 13 55 10
58 -3 3 -40 -28 -82 -68z"/>
<path d="M10034 12109 c31 -107 57 -271 70 -444 17 -229 33 -297 97 -396 55
-84 227 -253 244 -239 27 22 76 150 87 228 34 233 -82 471 -365 751 -58 57
-113 109 -123 114 -15 8 -16 6 -10 -14z"/>
<path d="M1275 11393 c-141 -170 -286 -420 -334 -576 -69 -228 -29 -470 104
-624 l32 -37 67 85 c132 165 192 293 203 434 3 39 -2 146 -11 238 -18 187 -20
379 -6 477 5 35 7 66 5 68 -2 2 -29 -27 -60 -65z"/>
<path d="M10635 11440 c17 -68 17 -333 0 -515 -10 -104 -15 -219 -12 -255 12
-138 73 -266 203 -429 l67 -85 34 40 c42 49 107 182 123 253 19 83 15 233 -9
324 -49 188 -214 477 -366 642 -38 41 -45 45 -40 25z"/>
<path d="M2515 11373 c-30 -12 -94 -17 -246 -22 l-205 -6 -77 -38 c-57 -28
-101 -61 -165 -123 -83 -80 -86 -85 -68 -99 42 -32 128 -50 246 -50 130 0 183
16 295 90 70 46 297 265 275 264 -8 0 -33 -7 -55 -16z"/>
<path d="M9496 11281 c128 -127 238 -203 337 -232 57 -18 86 -21 166 -16 94 5
200 32 224 57 20 20 -146 171 -240 217 l-77 38 -205 6 c-155 5 -217 10 -250
23 -24 9 -49 16 -55 16 -6 0 39 -49 100 -109z"/>
<path d="M2115 10734 c-66 -39 -152 -64 -295 -84 -74 -10 -156 -25 -181 -33
-65 -20 -148 -78 -214 -148 -56 -61 -135 -170 -135 -187 0 -14 80 -32 168 -38
97 -7 204 14 291 58 89 45 214 167 327 318 114 152 117 161 39 114z"/>
<path d="M9800 10754 c0 -22 191 -261 265 -333 142 -136 278 -190 447 -177 90
6 168 24 168 38 0 16 -90 138 -143 195 -61 65 -144 121 -206 140 -25 8 -107
22 -181 33 -142 20 -223 43 -298 85 -48 27 -52 28 -52 19z"/>
<path d="M731 10530 c-55 -92 -132 -254 -176 -369 -89 -234 -118 -475 -76
-641 31 -127 82 -219 175 -317 65 -69 82 -82 92 -71 26 27 124 227 156 318 31
89 33 103 33 230 -1 133 -1 138 -57 340 -61 219 -84 338 -96 490 l-7 95 -44
-75z"/>
<path d="M11187 10503 c-9 -133 -38 -286 -91 -481 -62 -226 -69 -268 -64 -380
4 -73 13 -120 37 -192 30 -90 128 -290 155 -318 10 -11 27 2 92 71 93 98 144
190 175 317 42 167 13 405 -77 645 -39 100 -173 377 -202 414 -19 23 -19 23
-25 -76z"/>
<path d="M1788 9972 c-91 -78 -171 -118 -348 -172 -129 -40 -201 -75 -261
-128 -60 -53 -140 -170 -194 -284 l-44 -93 42 -8 c52 -10 180 0 255 19 207 54
367 217 514 523 64 134 80 171 73 171 -2 0 -19 -13 -37 -28z"/>
<path d="M10140 9996 c0 -3 31 -69 69 -148 158 -328 313 -489 523 -542 76 -19
203 -29 255 -19 l42 8 -44 93 c-54 114 -134 231 -194 284 -60 53 -132 88 -261
128 -175 54 -238 85 -362 181 -16 11 -28 18 -28 15z"/>
<path d="M281 9424 c-129 -413 -160 -745 -94 -989 43 -160 139 -310 261 -407
64 -50 139 -98 156 -98 8 0 74 216 94 304 12 56 17 122 16 216 -1 167 -14 211
-143 467 -105 212 -169 370 -207 513 -15 58 -31 109 -35 114 -4 5 -26 -49 -48
-120z"/>
<path d="M11630 9508 c-40 -161 -111 -343 -220 -568 -65 -135 -126 -272 -135
-305 -35 -134 -30 -293 16 -473 16 -65 67 -220 75 -230 6 -8 89 43 156 96 291
231 366 628 226 1187 -30 123 -96 335 -103 335 -2 0 -9 -19 -15 -42z"/>
<path d="M1575 9088 c-78 -105 -187 -187 -395 -294 -193 -100 -290 -238 -365
-516 -14 -51 -25 -99 -25 -105 0 -36 200 5 325 66 183 90 306 249 393 506 34
100 104 364 100 376 -2 4 -16 -11 -33 -33z"/>
<path d="M10360 9123 c0 -18 83 -323 107 -393 14 -41 48 -120 76 -175 42 -82
67 -116 137 -186 69 -70 101 -94 170 -128 47 -22 121 -50 165 -61 85 -21 165
-26 165 -11 0 25 -33 149 -61 228 -71 202 -163 311 -339 402 -194 100 -279
162 -372 274 -26 32 -48 54 -48 50z"/>
<path d="M31 8198 c-7 -73 -17 -166 -22 -206 -14 -110 -11 -196 12 -389 43
-366 123 -566 299 -743 47 -47 111 -100 142 -118 61 -36 197 -97 239 -107 24
-6 27 -4 33 33 30 190 30 404 0 549 -33 162 -77 241 -274 488 -70 88 -152 196
-182 240 -64 93 -169 273 -198 339 -10 25 -23 46 -28 46 -5 0 -14 -60 -21
-132z"/>
<path d="M11890 8284 c-29 -66 -134 -246 -198 -339 -30 -44 -112 -152 -182
-240 -149 -187 -198 -260 -233 -348 -46 -114 -62 -217 -61 -382 1 -131 18
-332 29 -343 7 -7 108 30 180 66 248 123 401 327 481 639 26 104 64 405 64
511 0 39 -4 104 -9 144 -5 40 -15 133 -22 206 -7 72 -16 132 -21 132 -5 0 -18
-21 -28 -46z"/>
<path d="M1511 8113 c-65 -135 -143 -225 -333 -385 -186 -156 -248 -263 -288
-493 -17 -101 -25 -315 -11 -315 26 0 170 62 241 104 258 152 378 388 409 807
14 174 18 329 11 329 -3 0 -16 -21 -29 -47z"/>
<path d="M10430 8059 c0 -240 33 -483 86 -631 80 -222 234 -375 477 -473 48
-19 92 -35 98 -35 9 0 10 34 6 130 -16 332 -88 499 -283 660 -186 153 -265
241 -342 380 l-42 75 0 -106z"/>
<path d="M1685 7033 c-10 -72 -68 -233 -109 -306 -20 -36 -78 -123 -130 -194
-114 -156 -148 -216 -178 -313 -20 -66 -23 -94 -22 -235 0 -134 5 -181 28
-290 15 -71 31 -134 36 -138 11 -12 41 5 125 68 183 136 292 290 347 490 29
108 32 384 4 550 -25 154 -76 398 -86 408 -4 5 -11 -13 -15 -40z"/>
<path d="M10267 7070 c-3 -8 -17 -69 -31 -135 -117 -552 -98 -831 74 -1085 70
-102 309 -309 344 -297 14 5 41 119 62 262 22 144 15 312 -16 410 -32 100 -57
144 -156 280 -154 210 -206 312 -249 485 -12 52 -25 88 -28 80z"/>
<path d="M40 6853 c0 -22 20 -167 41 -288 119 -692 376 -1130 757 -1290 83
-34 177 -60 257 -70 28 -3 70 -8 94 -11 l44 -6 -7 83 c-18 219 -93 486 -176
629 -60 104 -198 238 -410 398 -231 174 -408 340 -574 537 -14 17 -26 25 -26
18z"/>
<path d="M11863 6788 c-73 -89 -262 -276 -358 -355 -39 -32 -143 -113 -231
-180 -265 -201 -359 -317 -435 -534 -42 -118 -84 -319 -95 -448 l-7 -83 46 6
c26 3 68 9 95 12 517 63 862 518 1006 1331 30 172 50 313 44 319 -3 2 -32 -28
-65 -68z"/>
<path d="M2138 5908 c4 -171 -19 -289 -95 -488 -136 -355 -148 -459 -81 -700
24 -90 108 -288 162 -384 l38 -68 40 38 c68 66 158 195 209 299 140 288 124
584 -53 995 -50 114 -188 393 -211 424 -9 13 -11 -12 -9 -116z"/>
<path d="M9773 5933 c-137 -257 -243 -516 -283 -698 -31 -138 -31 -315 -1
-440 38 -160 161 -374 279 -489 l40 -38 38 68 c60 107 141 304 170 412 21 78
26 120 27 212 0 138 -15 199 -101 421 -92 237 -106 303 -107 496 0 90 -1 163
-2 163 -1 0 -28 -48 -60 -107z"/>
<path d="M420 5317 c0 -9 80 -198 128 -302 197 -430 447 -776 697 -963 87 -65
266 -155 363 -181 98 -27 262 -44 342 -36 99 9 206 26 221 35 10 7 5 30 -26
107 -95 243 -225 462 -349 587 -122 124 -226 183 -550 316 -333 136 -450 196
-681 349 -136 90 -145 95 -145 88z"/>
<path d="M11495 5289 c-175 -132 -459 -283 -769 -409 -256 -104 -371 -164
-472 -244 -164 -132 -299 -338 -425 -649 -34 -86 -41 -110 -30 -116 15 -10
121 -27 221 -36 80 -8 244 9 342 36 97 26 276 116 363 181 290 218 565 626
786 1167 22 52 39 96 39 98 0 8 -19 -1 -55 -28z"/>
<path d="M2885 5035 c79 -209 98 -395 70 -683 -20 -204 -16 -362 9 -457 44
-164 192 -394 380 -590 112 -117 99 -121 170 45 80 188 99 277 100 470 1 151
-2 174 -27 264 -66 240 -209 462 -502 786 -62 69 -139 150 -170 180 l-56 55
26 -70z"/>
<path d="M9009 5002 c-372 -386 -551 -648 -626 -918 -25 -90 -28 -113 -27
-264 1 -193 20 -282 100 -470 71 -166 58 -162 170 -45 188 196 336 426 380
590 25 95 29 253 9 457 -27 285 -13 441 59 651 19 53 33 97 32 97 -2 0 -45
-44 -97 -98z"/>
<path d="M3860 4356 c0 -3 29 -45 65 -93 82 -112 175 -293 214 -420 17 -54 46
-177 66 -273 20 -96 45 -206 57 -245 74 -250 258 -458 585 -661 125 -78 240
-140 247 -134 13 14 36 234 36 352 0 354 -104 603 -359 859 -126 126 -218 198
-392 312 -158 103 -519 313 -519 303z"/>
<path d="M7932 4260 c-228 -132 -395 -238 -517 -329 -127 -95 -316 -284 -378
-378 -69 -104 -134 -247 -164 -360 -24 -89 -26 -116 -27 -293 -1 -199 16 -370
37 -370 19 0 208 110 327 191 264 179 418 359 488 572 17 50 47 172 67 270 20
98 48 217 61 265 35 122 140 329 224 440 38 50 67 92 62 92 -4 -1 -85 -46
-180 -100z"/>
<path d="M1260 3794 c0 -10 138 -182 243 -304 418 -483 836 -772 1238 -856
114 -24 325 -24 437 0 169 36 425 143 404 169 -333 438 -579 637 -881 713 -90
23 -254 47 -516 74 -270 28 -538 85 -779 164 -152 50 -146 49 -146 40z"/>
<path d="M10560 3754 c-221 -76 -505 -136 -775 -164 -262 -27 -426 -51 -516
-74 -198 -50 -359 -147 -548 -331 -118 -114 -331 -366 -331 -390 0 -14 171
-96 260 -124 130 -41 211 -54 355 -54 213 -1 364 37 580 143 285 140 587 390
882 730 105 122 243 294 243 304 0 10 -19 5 -150 -40z"/>
<path d="M4045 2605 c-49 -7 -184 -32 -300 -54 -427 -83 -640 -105 -968 -99
-114 2 -207 1 -207 -1 0 -7 32 -29 205 -145 840 -561 1535 -743 2070 -541 157
59 324 164 465 293 65 60 73 71 62 85 -32 38 -349 238 -487 307 -152 76 -262
118 -390 146 -97 22 -337 27 -450 9z"/>
<path d="M7545 2609 c-179 -32 -312 -80 -495 -176 -119 -62 -371 -223 -435
-278 l-30 -25 75 -70 c398 -370 868 -463 1467 -289 227 65 549 214 828 382
156 93 445 286 445 296 0 3 -93 5 -207 3 -327 -6 -541 16 -965 98 -114 22
-254 47 -310 55 -113 16 -295 18 -373 4z"/>
<path d="M5669 2006 c7 -8 57 -52 112 -98 56 -47 98 -89 97 -98 -4 -20 -674
-344 -1133 -547 -520 -231 -921 -372 -1057 -373 -16 0 -28 -4 -28 -10 0 -5 43
-186 95 -402 52 -215 95 -394 96 -397 0 -3 12 26 26 64 33 90 80 163 157 243
138 145 294 254 826 577 508 308 850 534 1074 709 33 25 63 46 67 46 5 0 73
-48 151 -106 212 -158 588 -403 993 -649 553 -335 748 -475 869 -620 56 -69
111 -170 122 -224 4 -17 10 -31 13 -31 4 0 49 174 101 388 51 213 95 392 97
398 3 7 -19 14 -59 18 -256 28 -833 263 -1862 758 -165 80 -301 149 -303 155
-2 6 48 55 111 109 64 54 113 100 111 103 -3 2 -81 -33 -173 -79 l-169 -82
-168 81 c-92 44 -170 81 -173 81 -2 0 1 -6 7 -14z"/>
</g>
</svg>
