<?xml version="1.0" encoding="UTF-8" standalone="no" ?>
<!DOCTYPE svg PUBLIC "-//W3C//DTD SVG 1.1//EN" "http://www.w3.org/Graphics/SVG/1.1/DTD/svg11.dtd">
<svg xmlns="http://www.w3.org/2000/svg" xmlns:xlink="http://www.w3.org/1999/xlink" version="1.1" width="1080" height="1080" viewBox="0 0 1080 1080" xml:space="preserve">
<desc>Created with Fabric.js 4.2.0</desc>
<defs>
</defs>
<g transform="matrix(1 0 0 1 540 540)" id="3fdd7bc2-99cb-467c-8da5-a8e47a541507"  >
<rect style="stroke: none; stroke-width: 1; stroke-dasharray: none; stroke-linecap: butt; stroke-dashoffset: 0; stroke-linejoin: miter; stroke-miterlimit: 4; fill: rgb(255,255,255); fill-rule: nonzero; opacity: 1;" vector-effect="non-scaling-stroke"  x="-540" y="-540" rx="0" ry="0" width="1080" height="1080" />
</g>
<g transform="matrix(1 0 0 1 540 540)" id="76d72ffa-987b-43cd-abbc-1a016474dd5b"  >
</g>
<g transform="matrix(0.44 0 0 0.48 540 540)"  >
<g style="" vector-effect="non-scaling-stroke"   >
		<g transform="matrix(0.13 0 0 -0.13 -436.5 -767.28)"  >
<path style="stroke: none; stroke-width: 1; stroke-dasharray: none; stroke-linecap: butt; stroke-dashoffset: 0; stroke-linejoin: miter; stroke-miterlimit: 4; fill: rgb(9,126,106); fill-rule: nonzero; opacity: 1;" vector-effect="non-scaling-stroke"  transform=" translate(-2711.54, -12119.5)" d="M 2935 12441 C 2709 12328 2495 12217 2460 12195 C 2273 12081 2155 11975 2105 11874 C 2080 11823 2075 11804 2075 11735 C 2075 11689 2081 11641 2089 11623 L 2102 11590 L 2184 11590 C 2441 11591 2589 11694 2880 12076 C 3083 12343 3162 12441 3263 12553 C 3312 12606 3350 12649 3348 12649 C 3346 12648 3160 12554 2935 12441 z" stroke-linecap="round" />
</g>
		<g transform="matrix(0.13 0 0 -0.13 436.5 -767.01)"  >
<path style="stroke: none; stroke-width: 1; stroke-dasharray: none; stroke-linecap: butt; stroke-dashoffset: 0; stroke-linejoin: miter; stroke-miterlimit: 4; fill: rgb(9,126,106); fill-rule: nonzero; opacity: 1;" vector-effect="non-scaling-stroke"  transform=" translate(-9259, -12117.5)" d="M 8709 12550 C 8807 12442 8891 12338 9074 12097 C 9228 11894 9314 11797 9399 11730 C 9521 11632 9637 11590 9786 11590 L 9868 11590 L 9881 11623 C 9889 11641 9895 11690 9895 11735 C 9895 11803 9891 11824 9867 11872 C 9819 11970 9705 12074 9520 12190 C 9490 12209 9276 12319 9044 12435 L 8623 12645 L 8709 12550 z" stroke-linecap="round" />
</g>
		<g transform="matrix(0.13 0 0 -0.13 -573.47 -694.81)"  >
<path style="stroke: none; stroke-width: 1; stroke-dasharray: none; stroke-linecap: butt; stroke-dashoffset: 0; stroke-linejoin: miter; stroke-miterlimit: 4; fill: rgb(9,126,106); fill-rule: nonzero; opacity: 1;" vector-effect="non-scaling-stroke"  transform=" translate(-1684.25, -11575.94)" d="M 1854 12059 C 1454 11680 1344 11375 1499 11073 C 1510 11050 1524 11029 1529 11025 C 1544 11016 1723 11198 1768 11268 C 1834 11371 1849 11429 1865 11655 C 1880 11850 1896 11960 1926 12069 C 1934 12098 1939 12124 1936 12127 C 1933 12130 1896 12099 1854 12059 z" stroke-linecap="round" />
</g>
		<g transform="matrix(0.13 0 0 -0.13 573.18 -695.12)"  >
<path style="stroke: none; stroke-width: 1; stroke-dasharray: none; stroke-linecap: butt; stroke-dashoffset: 0; stroke-linejoin: miter; stroke-miterlimit: 4; fill: rgb(9,126,106); fill-rule: nonzero; opacity: 1;" vector-effect="non-scaling-stroke"  transform=" translate(-10284.16, -11578.28)" d="M 10034 12109 C 10065 12002 10091 11838 10104 11665 C 10121 11436 10137 11368 10201 11269 C 10256 11185 10428 11016 10445 11030 C 10472 11052 10521 11180 10532 11258 C 10566 11491 10450 11729 10167 12009 C 10109 12066 10054 12118 10044 12123 C 10029 12131 10028 12129 10034 12109 z" stroke-linecap="round" />
</g>
		<g transform="matrix(0.13 0 0 -0.13 -647.66 -592.29)"  >
<path style="stroke: none; stroke-width: 1; stroke-dasharray: none; stroke-linecap: butt; stroke-dashoffset: 0; stroke-linejoin: miter; stroke-miterlimit: 4; fill: rgb(9,126,106); fill-rule: nonzero; opacity: 1;" vector-effect="non-scaling-stroke"  transform=" translate(-1127.79, -10807.05)" d="M 1275 11393 C 1134 11223 989 10973 941 10817 C 872 10589 912 10347 1045 10193 L 1077 10156 L 1144 10241 C 1276 10406 1336 10534 1347 10675 C 1350 10714 1345 10821 1336 10913 C 1318 11100 1316 11292 1330 11390 C 1335 11425 1337 11456 1335 11458 C 1333 11460 1306 11431 1275 11393 z" stroke-linecap="round" />
</g>
		<g transform="matrix(0.13 0 0 -0.13 647.57 -591.86)"  >
<path style="stroke: none; stroke-width: 1; stroke-dasharray: none; stroke-linecap: butt; stroke-dashoffset: 0; stroke-linejoin: miter; stroke-miterlimit: 4; fill: rgb(9,126,106); fill-rule: nonzero; opacity: 1;" vector-effect="non-scaling-stroke"  transform=" translate(-10842.06, -10803.85)" d="M 10635 11440 C 10652 11372 10652 11107 10635 10925 C 10625 10821 10620 10706 10623 10670 C 10635 10532 10696 10404 10826 10241 L 10893 10156 L 10927 10196 C 10969 10245 11034 10378 11050 10449 C 11069 10532 11065 10682 11041 10773 C 10992 10961 10827 11250 10675 11415 C 10637 11456 10630 11460 10635 11440 z" stroke-linecap="round" />
</g>
		<g transform="matrix(0.13 0 0 -0.13 -510.27 -646.28)"  >
<path style="stroke: none; stroke-width: 1; stroke-dasharray: none; stroke-linecap: butt; stroke-dashoffset: 0; stroke-linejoin: miter; stroke-miterlimit: 4; fill: rgb(9,126,106); fill-rule: nonzero; opacity: 1;" vector-effect="non-scaling-stroke"  transform=" translate(-2158.28, -11212)" d="M 2515 11373 C 2485 11361 2421 11356 2269 11351 L 2064 11345 L 1987 11307 C 1930 11279 1886 11246 1822 11184 C 1739 11104 1736 11099 1754 11085 C 1796 11053 1882 11035 2000 11035 C 2130 11035 2183 11051 2295 11125 C 2365 11171 2592 11390 2570 11389 C 2562 11389 2537 11382 2515 11373 z" stroke-linecap="round" />
</g>
		<g transform="matrix(0.13 0 0 -0.13 509.97 -646.07)"  >
<path style="stroke: none; stroke-width: 1; stroke-dasharray: none; stroke-linecap: butt; stroke-dashoffset: 0; stroke-linejoin: miter; stroke-miterlimit: 4; fill: rgb(9,126,106); fill-rule: nonzero; opacity: 1;" vector-effect="non-scaling-stroke"  transform=" translate(-9810.06, -11210.42)" d="M 9496 11281 C 9624 11154 9734 11078 9833 11049 C 9890 11031 9919 11028 9999 11033 C 10093 11038 10199 11065 10223 11090 C 10243 11110 10077 11261 9983 11307 L 9906 11345 L 9701 11351 C 9546 11356 9484 11361 9451 11374 C 9427 11383 9402 11390 9396 11390 C 9390 11390 9435 11341 9496 11281 z" stroke-linecap="round" />
</g>
		<g transform="matrix(0.13 0 0 -0.13 -567.48 -551.47)"  >
<path style="stroke: none; stroke-width: 1; stroke-dasharray: none; stroke-linecap: butt; stroke-dashoffset: 0; stroke-linejoin: miter; stroke-miterlimit: 4; fill: rgb(9,126,106); fill-rule: nonzero; opacity: 1;" vector-effect="non-scaling-stroke"  transform=" translate(-1729.18, -10500.89)" d="M 2115 10734 C 2049 10695 1963 10670 1820 10650 C 1746 10640 1664 10625 1639 10617 C 1574 10597 1491 10539 1425 10469 C 1369 10408 1290 10299 1290 10282 C 1290 10268 1370 10250 1458 10244 C 1555 10237 1662 10258 1749 10302 C 1838 10347 1963 10469 2076 10620 C 2190 10772 2193 10781 2115 10734 z" stroke-linecap="round" />
</g>
		<g transform="matrix(0.13 0 0 -0.13 567.3 -551.43)"  >
<path style="stroke: none; stroke-width: 1; stroke-dasharray: none; stroke-linecap: butt; stroke-dashoffset: 0; stroke-linejoin: miter; stroke-miterlimit: 4; fill: rgb(9,126,106); fill-rule: nonzero; opacity: 1;" vector-effect="non-scaling-stroke"  transform=" translate(-10240, -10500.61)" d="M 9800 10754 C 9800 10732 9991 10493 10065 10421 C 10207 10285 10343 10231 10512 10244 C 10602 10250 10680 10268 10680 10282 C 10680 10298 10590 10420 10537 10477 C 10476 10542 10393 10598 10331 10617 C 10306 10625 10224 10639 10150 10650 C 10008 10670 9927 10693 9852 10735 C 9804 10762 9800 10763 9800 10754 z" stroke-linecap="round" />
</g>
		<g transform="matrix(0.13 0 0 -0.13 -705.03 -466.92)"  >
<path style="stroke: none; stroke-width: 1; stroke-dasharray: none; stroke-linecap: butt; stroke-dashoffset: 0; stroke-linejoin: miter; stroke-miterlimit: 4; fill: rgb(9,126,106); fill-rule: nonzero; opacity: 1;" vector-effect="non-scaling-stroke"  transform=" translate(-697.54, -9866.77)" d="M 731 10530 C 676 10438 599 10276 555 10161 C 466 9927 437 9686 479 9520 C 510 9393 561 9301 654 9203 C 719 9134 736 9121 746 9132 C 772 9159 870 9359 902 9450 C 933 9539 935 9553 935 9680 C 934 9813 934 9818 878 10020 C 817 10239 794 10358 782 10510 L 775 10605 L 731 10530 z" stroke-linecap="round" />
</g>
		<g transform="matrix(0.13 0 0 -0.13 704.67 -466.02)"  >
<path style="stroke: none; stroke-width: 1; stroke-dasharray: none; stroke-linecap: butt; stroke-dashoffset: 0; stroke-linejoin: miter; stroke-miterlimit: 4; fill: rgb(9,126,106); fill-rule: nonzero; opacity: 1;" vector-effect="non-scaling-stroke"  transform=" translate(-11270.3, -9860.03)" d="M 11187 10503 C 11178 10370 11149 10217 11096 10022 C 11034 9796 11027 9754 11032 9642 C 11036 9569 11045 9522 11069 9450 C 11099 9360 11197 9160 11224 9132 C 11234 9121 11251 9134 11316 9203 C 11409 9301 11460 9393 11491 9520 C 11533 9687 11504 9925 11414 10165 C 11375 10265 11241 10542 11212 10579 C 11193 10602 11193 10602 11187 10503 z" stroke-linecap="round" />
</g>
		<g transform="matrix(0.13 0 0 -0.13 -613.54 -436.88)"  >
<path style="stroke: none; stroke-width: 1; stroke-dasharray: none; stroke-linecap: butt; stroke-dashoffset: 0; stroke-linejoin: miter; stroke-miterlimit: 4; fill: rgb(9,126,106); fill-rule: nonzero; opacity: 1;" vector-effect="non-scaling-stroke"  transform=" translate(-1383.76, -9641.53)" d="M 1788 9972 C 1697 9894 1617 9854 1440 9800 C 1311 9760 1239 9725 1179 9672 C 1119 9619 1039 9502 985 9388 L 941 9295 L 983 9287 C 1035 9277 1163 9287 1238 9306 C 1445 9360 1605 9523 1752 9829 C 1816 9963 1832 10000 1825 10000 C 1823 10000 1806 9987 1788 9972 z" stroke-linecap="round" />
</g>
		<g transform="matrix(0.13 0 0 -0.13 613.23 -436.66)"  >
<path style="stroke: none; stroke-width: 1; stroke-dasharray: none; stroke-linecap: butt; stroke-dashoffset: 0; stroke-linejoin: miter; stroke-miterlimit: 4; fill: rgb(9,126,106); fill-rule: nonzero; opacity: 1;" vector-effect="non-scaling-stroke"  transform=" translate(-10584.5, -9639.88)" d="M 10140 9996 C 10140 9993 10171 9927 10209 9848 C 10367 9520 10522 9359 10732 9306 C 10808 9287 10935 9277 10987 9287 L 11029 9295 L 10985 9388 C 10931 9502 10851 9619 10791 9672 C 10731 9725 10659 9760 10530 9800 C 10355 9854 10292 9885 10168 9981 C 10152 9992 10140 9999 10140 9996 z" stroke-linecap="round" />
</g>
		<g transform="matrix(0.13 0 0 -0.13 -740.2 -316.3)"  >
<path style="stroke: none; stroke-width: 1; stroke-dasharray: none; stroke-linecap: butt; stroke-dashoffset: 0; stroke-linejoin: miter; stroke-miterlimit: 4; fill: rgb(9,126,106); fill-rule: nonzero; opacity: 1;" vector-effect="non-scaling-stroke"  transform=" translate(-433.74, -8737.16)" d="M 281 9424 C 152 9011 121 8679 187 8435 C 230 8275 326 8125 448 8028 C 512 7978 587 7930 604 7930 C 612 7930 678 8146 698 8234 C 710 8290 715 8356 714 8450 C 713 8617 700 8661 571 8917 C 466 9129 402 9287 364 9430 C 349 9488 333 9539 329 9544 C 325 9549 303 9495 281 9424 z" stroke-linecap="round" />
</g>
		<g transform="matrix(0.13 0 0 -0.13 739.86 -316.76)"  >
<path style="stroke: none; stroke-width: 1; stroke-dasharray: none; stroke-linecap: butt; stroke-dashoffset: 0; stroke-linejoin: miter; stroke-miterlimit: 4; fill: rgb(9,126,106); fill-rule: nonzero; opacity: 1;" vector-effect="non-scaling-stroke"  transform=" translate(-11534.23, -8740.58)" d="M 11630 9508 C 11590 9347 11519 9165 11410 8940 C 11345 8805 11284 8668 11275 8635 C 11240 8501 11245 8342 11291 8162 C 11307 8097 11358 7942 11366 7932 C 11372 7924 11455 7975 11522 8028 C 11813 8259 11888 8656 11748 9215 C 11718 9338 11652 9550 11645 9550 C 11643 9550 11636 9531 11630 9508 z" stroke-linecap="round" />
</g>
		<g transform="matrix(0.13 0 0 -0.13 -638.16 -303.43)"  >
<path style="stroke: none; stroke-width: 1; stroke-dasharray: none; stroke-linecap: butt; stroke-dashoffset: 0; stroke-linejoin: miter; stroke-miterlimit: 4; fill: rgb(9,126,106); fill-rule: nonzero; opacity: 1;" vector-effect="non-scaling-stroke"  transform=" translate(-1199.08, -8640.59)" d="M 1575 9088 C 1497 8983 1388 8901 1180 8794 C 987 8694 890 8556 815 8278 C 801 8227 790 8179 790 8173 C 790 8137 990 8178 1115 8239 C 1298 8329 1421 8488 1508 8745 C 1542 8845 1612 9109 1608 9121 C 1606 9125 1592 9110 1575 9088 z" stroke-linecap="round" />
</g>
		<g transform="matrix(0.13 0 0 -0.13 637.96 -303.6)"  >
<path style="stroke: none; stroke-width: 1; stroke-dasharray: none; stroke-linecap: butt; stroke-dashoffset: 0; stroke-linejoin: miter; stroke-miterlimit: 4; fill: rgb(9,126,106); fill-rule: nonzero; opacity: 1;" vector-effect="non-scaling-stroke"  transform=" translate(-10770, -8641.9)" d="M 10360 9123 C 10360 9105 10443 8800 10467 8730 C 10481 8689 10515 8610 10543 8555 C 10585 8473 10610 8439 10680 8369 C 10749 8299 10781 8275 10850 8241 C 10897 8219 10971 8191 11015 8180 C 11100 8159 11180 8154 11180 8169 C 11180 8194 11147 8318 11119 8397 C 11048 8599 10956 8708 10780 8799 C 10586 8899 10501 8961 10408 9073 C 10382 9105 10360 9127 10360 9123 z" stroke-linecap="round" />
</g>
		<g transform="matrix(0.13 0 0 -0.13 -747.57 -148.84)"  >
<path style="stroke: none; stroke-width: 1; stroke-dasharray: none; stroke-linecap: butt; stroke-dashoffset: 0; stroke-linejoin: miter; stroke-miterlimit: 4; fill: rgb(9,126,106); fill-rule: nonzero; opacity: 1;" vector-effect="non-scaling-stroke"  transform=" translate(-378.53, -7481.21)" d="M 31 8198 C 24 8125 14 8032 9 7992 C -5 7882 -2 7796 21 7603 C 64 7237 144 7037 320 6860 C 367 6813 431 6760 462 6742 C 523 6706 659 6645 701 6635 C 725 6629 728 6631 734 6668 C 764 6858 764 7072 734 7217 C 701 7379 657 7458 460 7705 C 390 7793 308 7901 278 7945 C 214 8038 109 8218 80 8284 C 70 8309 57 8330 52 8330 C 47 8330 38 8270 31 8198 z" stroke-linecap="round" />
</g>
		<g transform="matrix(0.13 0 0 -0.13 747.69 -148.76)"  >
<path style="stroke: none; stroke-width: 1; stroke-dasharray: none; stroke-linecap: butt; stroke-dashoffset: 0; stroke-linejoin: miter; stroke-miterlimit: 4; fill: rgb(9,126,106); fill-rule: nonzero; opacity: 1;" vector-effect="non-scaling-stroke"  transform=" translate(-11592.98, -7480.57)" d="M 11890 8284 C 11861 8218 11756 8038 11692 7945 C 11662 7901 11580 7793 11510 7705 C 11361 7518 11312 7445 11277 7357 C 11231 7243 11215 7140 11216 6975 C 11217 6844 11234 6643 11245 6632 C 11252 6625 11353 6662 11425 6698 C 11673 6821 11826 7025 11906 7337 C 11932 7441 11970 7742 11970 7848 C 11970 7887 11966 7952 11961 7992 C 11956 8032 11946 8125 11939 8198 C 11932 8270 11923 8330 11918 8330 C 11913 8330 11900 8309 11890 8284 z" stroke-linecap="round" />
</g>
		<g transform="matrix(0.13 0 0 -0.13 -637.02 -156.68)"  >
<path style="stroke: none; stroke-width: 1; stroke-dasharray: none; stroke-linecap: butt; stroke-dashoffset: 0; stroke-linejoin: miter; stroke-miterlimit: 4; fill: rgb(9,126,106); fill-rule: nonzero; opacity: 1;" vector-effect="non-scaling-stroke"  transform=" translate(-1207.6, -7540)" d="M 1511 8113 C 1446 7978 1368 7888 1178 7728 C 992 7572 930 7465 890 7235 C 873 7134 865 6920 879 6920 C 905 6920 1049 6982 1120 7024 C 1378 7176 1498 7412 1529 7831 C 1543 8005 1547 8160 1540 8160 C 1537 8160 1524 8139 1511 8113 z" stroke-linecap="round" />
</g>
		<g transform="matrix(0.13 0 0 -0.13 637.25 -157.01)"  >
<path style="stroke: none; stroke-width: 1; stroke-dasharray: none; stroke-linecap: butt; stroke-dashoffset: 0; stroke-linejoin: miter; stroke-miterlimit: 4; fill: rgb(9,126,106); fill-rule: nonzero; opacity: 1;" vector-effect="non-scaling-stroke"  transform=" translate(-10764.62, -7542.5)" d="M 10430 8059 C 10430 7819 10463 7576 10516 7428 C 10596 7206 10750 7053 10993 6955 C 11041 6936 11085 6920 11091 6920 C 11100 6920 11101 6954 11097 7050 C 11081 7382 11009 7549 10814 7710 C 10628 7863 10549 7951 10472 8090 L 10430 8165 L 10430 8059 z" stroke-linecap="round" />
</g>
		<g transform="matrix(0.13 0 0 -0.13 -594.62 6.84)"  >
<path style="stroke: none; stroke-width: 1; stroke-dasharray: none; stroke-linecap: butt; stroke-dashoffset: 0; stroke-linejoin: miter; stroke-miterlimit: 4; fill: rgb(9,126,106); fill-rule: nonzero; opacity: 1;" vector-effect="non-scaling-stroke"  transform=" translate(-1525.64, -6313.62)" d="M 1685 7033 C 1675 6961 1617 6800 1576 6727 C 1556 6691 1498 6604 1446 6533 C 1332 6377 1298 6317 1268 6220 C 1248 6154 1245 6126 1246 5985 C 1246 5851 1251 5804 1274 5695 C 1289 5624 1305 5561 1310 5557 C 1321 5545 1351 5562 1435 5625 C 1618 5761 1727 5915 1782 6115 C 1811 6223 1814 6499 1786 6665 C 1761 6819 1710 7063 1700 7073 C 1696 7078 1689 7060 1685 7033 z" stroke-linecap="round" />
</g>
		<g transform="matrix(0.13 0 0 -0.13 594.67 7.08)"  >
<path style="stroke: none; stroke-width: 1; stroke-dasharray: none; stroke-linecap: butt; stroke-dashoffset: 0; stroke-linejoin: miter; stroke-miterlimit: 4; fill: rgb(9,126,106); fill-rule: nonzero; opacity: 1;" vector-effect="non-scaling-stroke"  transform=" translate(-10445.31, -6311.81)" d="M 10267 7070 C 10264 7062 10250 7001 10236 6935 C 10119 6383 10138 6104 10310 5850 C 10380 5748 10619 5541 10654 5553 C 10668 5558 10695 5672 10716 5815 C 10738 5959 10731 6127 10700 6225 C 10668 6325 10643 6369 10544 6505 C 10390 6715 10338 6817 10295 6990 C 10283 7042 10270 7078 10267 7070 z" stroke-linecap="round" />
</g>
		<g transform="matrix(0.13 0 0 -0.13 -713.17 45.75)"  >
<path style="stroke: none; stroke-width: 1; stroke-dasharray: none; stroke-linecap: butt; stroke-dashoffset: 0; stroke-linejoin: miter; stroke-miterlimit: 4; fill: rgb(9,126,106); fill-rule: nonzero; opacity: 1;" vector-effect="non-scaling-stroke"  transform=" translate(-636.5, -6021.77)" d="M 40 6853 C 40 6831 60 6686 81 6565 C 200 5873 457 5435 838 5275 C 921 5241 1015 5215 1095 5205 C 1123 5202 1165 5197 1189 5194 L 1233 5188 L 1226 5271 C 1208 5490 1133 5757 1050 5900 C 990 6004 852 6138 640 6298 C 409 6472 232 6638 66 6835 C 52 6852 40 6860 40 6853 z" stroke-linecap="round" />
</g>
		<g transform="matrix(0.13 0 0 -0.13 713.03 45.71)"  >
<path style="stroke: none; stroke-width: 1; stroke-dasharray: none; stroke-linecap: butt; stroke-dashoffset: 0; stroke-linejoin: miter; stroke-miterlimit: 4; fill: rgb(9,126,106); fill-rule: nonzero; opacity: 1;" vector-effect="non-scaling-stroke"  transform=" translate(-11333.03, -6022.05)" d="M 11863 6788 C 11790 6699 11601 6512 11505 6433 C 11466 6401 11362 6320 11274 6253 C 11009 6052 10915 5936 10839 5719 C 10797 5601 10755 5400 10744 5271 L 10737 5188 L 10783 5194 C 10809 5197 10851 5203 10878 5206 C 11395 5269 11740 5724 11884 6537 C 11914 6709 11934 6850 11928 6856 C 11925 6858 11896 6828 11863 6788 z" stroke-linecap="round" />
</g>
		<g transform="matrix(0.13 0 0 -0.13 -502.9 162.31)"  >
<path style="stroke: none; stroke-width: 1; stroke-dasharray: none; stroke-linecap: butt; stroke-dashoffset: 0; stroke-linejoin: miter; stroke-miterlimit: 4; fill: rgb(9,126,106); fill-rule: nonzero; opacity: 1;" vector-effect="non-scaling-stroke"  transform=" translate(-2213.55, -5147.58)" d="M 2138 5908 C 2142 5737 2119 5619 2043 5420 C 1907 5065 1895 4961 1962 4720 C 1986 4630 2070 4432 2124 4336 L 2162 4268 L 2202 4306 C 2270 4372 2360 4501 2411 4605 C 2551 4893 2535 5189 2358 5600 C 2308 5714 2170 5993 2147 6024 C 2138 6037 2136 6012 2138 5908 z" stroke-linecap="round" />
</g>
		<g transform="matrix(0.13 0 0 -0.13 502.6 161.45)"  >
<path style="stroke: none; stroke-width: 1; stroke-dasharray: none; stroke-linecap: butt; stroke-dashoffset: 0; stroke-linejoin: miter; stroke-miterlimit: 4; fill: rgb(9,126,106); fill-rule: nonzero; opacity: 1;" vector-effect="non-scaling-stroke"  transform=" translate(-9754.81, -5154)" d="M 9773 5933 C 9636 5676 9530 5417 9490 5235 C 9459 5097 9459 4920 9489 4795 C 9527 4635 9650 4421 9768 4306 L 9808 4268 L 9846 4336 C 9906 4443 9987 4640 10016 4748 C 10037 4826 10042 4868 10043 4960 C 10043 5098 10028 5159 9942 5381 C 9850 5618 9836 5684 9835 5877 C 9835 5967 9834 6040 9833 6040 C 9832 6040 9805 5992 9773 5933 z" stroke-linecap="round" />
</g>
		<g transform="matrix(0.13 0 0 -0.13 -624.99 238.51)"  >
<path style="stroke: none; stroke-width: 1; stroke-dasharray: none; stroke-linecap: butt; stroke-dashoffset: 0; stroke-linejoin: miter; stroke-miterlimit: 4; fill: rgb(9,126,106); fill-rule: nonzero; opacity: 1;" vector-effect="non-scaling-stroke"  transform=" translate(-1297.83, -4576.1)" d="M 420 5317 C 420 5308 500 5119 548 5015 C 745 4585 995 4239 1245 4052 C 1332 3987 1511 3897 1608 3871 C 1706 3844 1870 3827 1950 3835 C 2049 3844 2156 3861 2171 3870 C 2181 3877 2176 3900 2145 3977 C 2050 4220 1920 4439 1796 4564 C 1674 4688 1570 4747 1246 4880 C 913 5016 796 5076 565 5229 C 429 5319 420 5324 420 5317 z" stroke-linecap="round" />
</g>
		<g transform="matrix(0.13 0 0 -0.13 624.91 238.46)"  >
<path style="stroke: none; stroke-width: 1; stroke-dasharray: none; stroke-linecap: butt; stroke-dashoffset: 0; stroke-linejoin: miter; stroke-miterlimit: 4; fill: rgb(9,126,106); fill-rule: nonzero; opacity: 1;" vector-effect="non-scaling-stroke"  transform=" translate(-10672.09, -4576.41)" d="M 11495 5289 C 11320 5157 11036 5006 10726 4880 C 10470 4776 10355 4716 10254 4636 C 10090 4504 9955 4298 9829 3987 C 9795 3901 9788 3877 9799 3871 C 9814 3861 9920 3844 10020 3835 C 10100 3827 10264 3844 10362 3871 C 10459 3897 10638 3987 10725 4052 C 11015 4270 11290 4678 11511 5219 C 11533 5271 11550 5315 11550 5317 C 11550 5325 11531 5316 11495 5289 z" stroke-linecap="round" />
</g>
		<g transform="matrix(0.13 0 0 -0.13 -366.49 293.6)"  >
<path style="stroke: none; stroke-width: 1; stroke-dasharray: none; stroke-linecap: butt; stroke-dashoffset: 0; stroke-linejoin: miter; stroke-miterlimit: 4; fill: rgb(9,126,106); fill-rule: nonzero; opacity: 1;" vector-effect="non-scaling-stroke"  transform=" translate(-3236.58, -4162.91)" d="M 2885 5035 C 2964 4826 2983 4640 2955 4352 C 2935 4148 2939 3990 2964 3895 C 3008 3731 3156 3501 3344 3305 C 3456 3188 3443 3184 3514 3350 C 3594 3538 3613 3627 3614 3820 C 3615 3971 3612 3994 3587 4084 C 3521 4324 3378 4546 3085 4870 C 3023 4939 2946 5020 2915 5050 L 2859 5105 L 2885 5035 z" stroke-linecap="round" />
</g>
		<g transform="matrix(0.13 0 0 -0.13 366.09 293.93)"  >
<path style="stroke: none; stroke-width: 1; stroke-dasharray: none; stroke-linecap: butt; stroke-dashoffset: 0; stroke-linejoin: miter; stroke-miterlimit: 4; fill: rgb(9,126,106); fill-rule: nonzero; opacity: 1;" vector-effect="non-scaling-stroke"  transform=" translate(-8730.94, -4160.41)" d="M 9009 5002 C 8637 4616 8458 4354 8383 4084 C 8358 3994 8355 3971 8356 3820 C 8357 3627 8376 3538 8456 3350 C 8527 3184 8514 3188 8626 3305 C 8814 3501 8962 3731 9006 3895 C 9031 3990 9035 4148 9015 4352 C 8988 4637 9002 4793 9074 5003 C 9093 5056 9107 5100 9106 5100 C 9104 5100 9061 5056 9009 5002 z" stroke-linecap="round" />
</g>
		<g transform="matrix(0.13 0 0 -0.13 -198.7 389.59)"  >
<path style="stroke: none; stroke-width: 1; stroke-dasharray: none; stroke-linecap: butt; stroke-dashoffset: 0; stroke-linejoin: miter; stroke-miterlimit: 4; fill: rgb(9,126,106); fill-rule: nonzero; opacity: 1;" vector-effect="non-scaling-stroke"  transform=" translate(-4495, -3442.97)" d="M 3860 4356 C 3860 4353 3889 4311 3925 4263 C 4007 4151 4100 3970 4139 3843 C 4156 3789 4185 3666 4205 3570 C 4225 3474 4250 3364 4262 3325 C 4336 3075 4520 2867 4847 2664 C 4972 2586 5087 2524 5094 2530 C 5107 2544 5130 2764 5130 2882 C 5130 3236 5026 3485 4771 3741 C 4645 3867 4553 3939 4379 4053 C 4221 4156 3860 4366 3860 4356 z" stroke-linecap="round" />
</g>
		<g transform="matrix(0.13 0 0 -0.13 199.2 389.32)"  >
<path style="stroke: none; stroke-width: 1; stroke-dasharray: none; stroke-linecap: butt; stroke-dashoffset: 0; stroke-linejoin: miter; stroke-miterlimit: 4; fill: rgb(9,126,106); fill-rule: nonzero; opacity: 1;" vector-effect="non-scaling-stroke"  transform=" translate(-7479.26, -3445)" d="M 7932 4260 C 7704 4128 7537 4022 7415 3931 C 7288 3836 7099 3647 7037 3553 C 6968 3449 6903 3306 6873 3193 C 6849 3104 6847 3077 6846 2900 C 6845 2701 6862 2530 6883 2530 C 6902 2530 7091 2640 7210 2721 C 7474 2900 7628 3080 7698 3293 C 7715 3343 7745 3465 7765 3563 C 7785 3661 7813 3780 7826 3828 C 7861 3950 7966 4157 8050 4268 C 8088 4318 8117 4360 8112 4360 C 8108 4359 8027 4314 7932 4260 z" stroke-linecap="round" />
</g>
		<g transform="matrix(0.13 0 0 -0.13 -475.16 421)"  >
<path style="stroke: none; stroke-width: 1; stroke-dasharray: none; stroke-linecap: butt; stroke-dashoffset: 0; stroke-linejoin: miter; stroke-miterlimit: 4; fill: rgb(9,126,106); fill-rule: nonzero; opacity: 1;" vector-effect="non-scaling-stroke"  transform=" translate(-2421.59, -3207.39)" d="M 1260 3794 C 1260 3784 1398 3612 1503 3490 C 1921 3007 2339 2718 2741 2634 C 2855 2610 3066 2610 3178 2634 C 3347 2670 3603 2777 3582 2803 C 3249 3241 3003 3440 2701 3516 C 2611 3539 2447 3563 2185 3590 C 1915 3618 1647 3675 1406 3754 C 1254 3804 1260 3803 1260 3794 z" stroke-linecap="round" />
</g>
		<g transform="matrix(0.13 0 0 -0.13 475.3 420.97)"  >
<path style="stroke: none; stroke-width: 1; stroke-dasharray: none; stroke-linecap: butt; stroke-dashoffset: 0; stroke-linejoin: miter; stroke-miterlimit: 4; fill: rgb(9,126,106); fill-rule: nonzero; opacity: 1;" vector-effect="non-scaling-stroke"  transform=" translate(-9550, -3207.65)" d="M 10560 3754 C 10339 3678 10055 3618 9785 3590 C 9523 3563 9359 3539 9269 3516 C 9071 3466 8910 3369 8721 3185 C 8603 3071 8390 2819 8390 2795 C 8390 2781 8561 2699 8650 2671 C 8780 2630 8861 2617 9005 2617 C 9218 2616 9369 2654 9585 2760 C 9870 2900 10172 3150 10467 3490 C 10572 3612 10710 3784 10710 3794 C 10710 3804 10691 3799 10560 3754 z" stroke-linecap="round" />
</g>
		<g transform="matrix(0.13 0 0 -0.13 -268.3 561.91)"  >
<path style="stroke: none; stroke-width: 1; stroke-dasharray: none; stroke-linecap: butt; stroke-dashoffset: 0; stroke-linejoin: miter; stroke-miterlimit: 4; fill: rgb(9,126,106); fill-rule: nonzero; opacity: 1;" vector-effect="non-scaling-stroke"  transform=" translate(-3973.06, -2150.58)" d="M 4045 2605 C 3996 2598 3861 2573 3745 2551 C 3318 2468 3105 2446 2777 2452 C 2663 2454 2570 2453 2570 2451 C 2570 2444 2602 2422 2775 2306 C 3615 1745 4310 1563 4845 1765 C 5002 1824 5169 1929 5310 2058 C 5375 2118 5383 2129 5372 2143 C 5340 2181 5023 2381 4885 2450 C 4733 2526 4623 2568 4495 2596 C 4398 2618 4158 2623 4045 2605 z" stroke-linecap="round" />
</g>
		<g transform="matrix(0.13 0 0 -0.13 267.63 561.68)"  >
<path style="stroke: none; stroke-width: 1; stroke-dasharray: none; stroke-linecap: butt; stroke-dashoffset: 0; stroke-linejoin: miter; stroke-miterlimit: 4; fill: rgb(9,126,106); fill-rule: nonzero; opacity: 1;" vector-effect="non-scaling-stroke"  transform=" translate(-7992.5, -2152.33)" d="M 7545 2609 C 7366 2577 7233 2529 7050 2433 C 6931 2371 6679 2210 6615 2155 L 6585 2130 L 6660 2060 C 7058 1690 7528 1597 8127 1771 C 8354 1836 8676 1985 8955 2153 C 9111 2246 9400 2439 9400 2449 C 9400 2452 9307 2454 9193 2452 C 8866 2446 8652 2468 8228 2550 C 8114 2572 7974 2597 7918 2605 C 7805 2621 7623 2623 7545 2609 z" stroke-linecap="round" />
</g>
		<g transform="matrix(0.13 0 0 -0.13 2.45 708.6)"  >
<path style="stroke: none; stroke-width: 1; stroke-dasharray: none; stroke-linecap: butt; stroke-dashoffset: 0; stroke-linejoin: miter; stroke-miterlimit: 4; fill: rgb(9,126,106); fill-rule: nonzero; opacity: 1;" vector-effect="non-scaling-stroke"  transform=" translate(-6003.64, -1050.39)" d="M 5669 2006 C 5676 1998 5726 1954 5781 1908 C 5837 1861 5879 1819 5878 1810 C 5874 1790 5204 1466 4745 1263 C 4225 1032 3824 891 3688 890 C 3672 890 3660 886 3660 880 C 3660 875 3703 694 3755 478 C 3807 263 3850 84 3851 81 C 3851 78 3863 107 3877 145 C 3910 235 3957 308 4034 388 C 4172 533 4328 642 4860 965 C 5368 1273 5710 1499 5934 1674 C 5967 1699 5997 1720 6001 1720 C 6006 1720 6074 1672 6152 1614 C 6364 1456 6740 1211 7145 965 C 7698 630 7893 490 8014 345 C 8070 276 8125 175 8136 121 C 8140 104 8146 90 8149 90 C 8153 90 8198 264 8250 478 C 8301 691 8345 870 8347 876 C 8350 883 8328 890 8288 894 C 8032 922 7455 1157 6426 1652 C 6261 1732 6125 1801 6123 1807 C 6121 1813 6171 1862 6234 1916 C 6298 1970 6347 2016 6345 2019 C 6342 2021 6264 1986 6172 1940 L 6003 1858 L 5835 1939 C 5743 1983 5665 2020 5662 2020 C 5660 2020 5663 2014 5669 2006 z" stroke-linecap="round" />
</g>
</g>
</g>
</svg>